<svg xmlns="http://www.w3.org/2000/svg" xmlns:xlink="http://www.w3.org/1999/xlink" viewBox="0 0 410 722"><defs><style>.cls-1{opacity:0.4;}.cls-2{fill:url(#linear-gradient);}.cls-3{fill:url(#linear-gradient-2);}.cls-4{fill:url(#linear-gradient-3);}.cls-5{fill:url(#linear-gradient-4);}.cls-6{fill:url(#linear-gradient-5);}.cls-7{fill:url(#linear-gradient-6);}</style><linearGradient id="linear-gradient" y1="361" x2="410" y2="361" gradientUnits="userSpaceOnUse"><stop offset="0.32" stop-color="#fff"/><stop offset="1" stop-color="#acadb1"/></linearGradient><linearGradient id="linear-gradient-2" y1="48.04" x2="410" y2="48.04" gradientUnits="userSpaceOnUse"><stop offset="0" stop-color="#d2d3d5"/><stop offset="1" stop-color="#c0c1c3"/></linearGradient><linearGradient id="linear-gradient-3" y1="520.07" x2="217.89" y2="520.07" gradientUnits="userSpaceOnUse"><stop offset="0" stop-color="#f4f4f4"/><stop offset="1" stop-color="#b9babc"/></linearGradient><linearGradient id="linear-gradient-4" x1="178.15" y1="371.4" x2="108.63" y2="53.1" gradientUnits="userSpaceOnUse"><stop offset="0.18" stop-color="#cfcfd1"/><stop offset="1" stop-color="#a7a7a7"/></linearGradient><linearGradient id="linear-gradient-5" x1="4.08" y1="167.84" x2="410.1" y2="110.87" gradientUnits="userSpaceOnUse"><stop offset="0.14" stop-color="#ebebeb"/><stop offset="0.22" stop-color="#e1e1e2"/><stop offset="0.42" stop-color="#cecfd0"/><stop offset="0.56" stop-color="#c7c8ca"/></linearGradient><linearGradient id="linear-gradient-6" x1="486.97" y1="124.35" x2="487.47" y2="124.35" gradientUnits="userSpaceOnUse"><stop offset="0.08" stop-color="#d2d2d4"/><stop offset="0.25" stop-color="#c4c4c6"/><stop offset="0.4" stop-color="#bdbec0"/></linearGradient></defs><title>Asset 2</title><g id="Layer_2" data-name="Layer 2"><g id="Layer_2-2" data-name="Layer 2" class="cls-1"><rect class="cls-2" width="410" height="722"/><polygon class="cls-3" points="0 96.08 410 38.71 410 0 0 0 0 96.08"/><polygon class="cls-4" points="0 318.13 0 722 217.89 722 0 318.13"/><polygon class="cls-5" points="325.81 0 0 0 0 603.17 325.81 0"/><polygon class="cls-6" points="0 238.47 410 182.74 410 39.13 0 96.57 0 238.47"/><polygon class="cls-7" points="410 39.13 296.05 55.09 212.61 209.57 410 182.74 410 39.13"/></g></g></svg>