<svg id="Layer_1" data-name="Layer 1" xmlns="http://www.w3.org/2000/svg" viewBox="0 0 86.64 101.58">
  <defs>
    <style>
      .cls-5{stroke-linecap:round;fill:none;stroke:#82bce6;stroke-linejoin:round;stroke-width:2.5px}
    </style>
  </defs>
  <path id="Shape" d="M336.33,438.32l-58.56,7.19a4,4,0,0,1-4.46-3.48l-9-73.43a2,2,0,0,1,1.74-2.23h0l4.86-.55,3.93-.44,2.82-.32,52-5.85,9.3,67.84.84,6.81A4,4,0,0,1,336.33,438.32Z" transform="translate(-263.03 -345.21)" style="stroke-linecap:round;stroke:#b4d7f2;stroke-miterlimit:10;stroke-width:2.5px;fill:#fff"/>
  <path id="Rectangle" d="M327.14,363.48,335.56,425l.76,6.17a3.62,3.62,0,0,1-3.11,4h0l-52.44,6.44a3.61,3.61,0,0,1-4-3.16h0l-8.15-66.37a2,2,0,0,1,1.75-2.23l6.48-.8" transform="translate(-263.03 -345.21)" style="fill:#e1eefa"/>
  <g id="Rectangle-2">
    <path d="M345.67,428h-59a2.75,2.75,0,0,1-2.75-2.75v-76a2.75,2.75,0,0,1,2.75-2.75h45.56a2.73,2.73,0,0,1,1.94.81l13.45,13.43a2.73,2.73,0,0,1,.8,1.95v62.56A2.75,2.75,0,0,1,345.67,428Z" transform="translate(-263.03 -345.21)" style="fill:#fff"/>
    <path d="M286.67,347.71a1.5,1.5,0,0,0-1.5,1.5v76a1.5,1.5,0,0,0,1.5,1.5h59a1.5,1.5,0,0,0,1.5-1.5V362.65a1.46,1.46,0,0,0-.44-1.06l-13.44-13.44a1.5,1.5,0,0,0-1.06-.44H286.67m0-2.5h45.56a4,4,0,0,1,2.83,1.17l13.44,13.44a4,4,0,0,1,1.17,2.83v62.56a4,4,0,0,1-4,4h-59a4,4,0,0,1-4-4v-76A4,4,0,0,1,286.67,345.21Z" transform="translate(-263.03 -345.21)" style="fill:#2e76bc"/>
  </g>
  <path id="Shape-2" class="cls-5" d="M331.67,350.44v10.15c0,1.45,1.62,2.62,3.62,2.62h9.58" transform="translate(-263.03 -345.21)"/>
  <path id="Line" class="cls-5" d="M294.47,366.21h26" transform="translate(-263.03 -345.21)"/>
  <path id="Line-2" data-name="Line" class="cls-5" d="M294.47,378.31h43" transform="translate(-263.03 -345.21)"/>
  <path id="Line-3" data-name="Line" class="cls-5" d="M294.47,390.41h43" transform="translate(-263.03 -345.21)"/>
  <path id="Line-4" data-name="Line" class="cls-5" d="M294.47,402.51h43" transform="translate(-263.03 -345.21)"/>
  <path id="Line-5" data-name="Line" class="cls-5" d="M294.47,414.6h26" transform="translate(-263.03 -345.21)"/>
</svg>
