<svg xmlns="http://www.w3.org/2000/svg" viewBox="0 0 125.5 98.25">
    <g id="Layer_2" data-name="Layer 2">
        <g id="Layer_1-2" data-name="Layer 1">
            <path id="Shape" d="M96.25,97h-73a22.22,22.22,0,0,1-8.56-1.69,22,22,0,0,1-7-4.61A21.47,21.47,0,0,1,3,83.87,21.08,21.08,0,0,1,3,67.13,21.47,21.47,0,0,1,7.69,60.3,22.21,22.21,0,0,1,23.25,54c.51,0,1,0,1.54,0a34,34,0,0,1,65.7-16.88A32.2,32.2,0,0,1,93.75,37a30.7,30.7,0,0,1,21.57,8.79,29.71,29.71,0,0,1,6.53,9.53A29.32,29.32,0,0,1,124.25,67a29.76,29.76,0,0,1-8.12,20.42A30.56,30.56,0,0,1,96.25,97Z" style="stroke-miterlimit:10;stroke-linecap:round;stroke-width:2.5px;stroke:#2e77bc;fill:none" />
            <path id="Oval-2" d="M68.25,24A19,19,0,0,1,81.69,37.29" style="stroke:#83bce6;stroke-miterlimit:10;stroke-linecap:round;stroke-width:2.5px;fill:none" />
            <circle id="Oval-3" style="fill:none;stroke:#83bce6;stroke-miterlimit:10;stroke-width:2px" cx="89.25" cy="4" r="3" />
            <circle id="Oval-4" style="fill:#83bce6" cx="120.25" cy="20" r="3" />
            <path id="Line_5" data-name="Line 5" style="fill:none;stroke-linejoin:round;stroke:#83bce6;stroke-linecap:round;stroke-width:2.5px" d="M101.25,19l-4.12,4.12L101.25,19,97,14.76,101.25,19l4.24-4.24L101.25,19l4.12,4.12Z" />
            <path id="Line_4" data-name="Line 4" style="fill:none;stroke-linejoin:round;stroke:#83bce6;stroke-linecap:round;stroke-width:2.5px" d="M5.65,35.6l-3,3,3-3-3-3,3,3,3-3-3,3,3,3Z" />
            <circle id="Oval-5" style="fill:#83bce6" cx="16.25" cy="23" r="3" />
            <path id="Line_4-2" data-name="Line 4" style="fill:none;stroke-linejoin:round;stroke:#83bce6;stroke-linecap:round;stroke-width:2.5px" d="M46,62.72l-3,3,3-3-3-3,3,3,3-3-3,3,3,3Z" />
            <path id="Line_4-3" data-name="Line 4" style="fill:none;stroke-linejoin:round;stroke:#83bce6;stroke-linecap:round;stroke-width:2.5px" d="M71.62,61.08l-4.37,4.37,4.37-4.37L67.25,56.7l4.37,4.38L76,56.7l-4.37,4.38L76,65.45Z" />
            <circle id="Oval-3-2" data-name="Oval-3" style="fill:none;stroke:#83bce6;stroke-miterlimit:10;stroke-width:2px" cx="59.35" cy="78.89" r="3" />
        </g>
    </g>
</svg>
