<svg xmlns="http://www.w3.org/2000/svg" viewBox="0 0 43 43"><defs><style>
                                                                      .cls-1 {
                                                                          fill: #fff;
                                                                      }
</style></defs><title>mvp_logo</title><g id="Layer_2" data-name="Layer 2"><g id="Layer_1-2" data-name="Layer 1"><path class="cls-1" d="M13.67,22.41A15.14,15.14,0,0,0,13.45,24l-.07.48h0a14.16,14.16,0,0,0-.33-2l-1.82-7.89H7.69v13H9.76V20.68c0-1.18,0-2.39-.09-3.61h.08l.35,2.3,2,8.19h2.28l1.89-8.31c.18-.9.31-1.63.39-2.18h.05Q16.6,19,16.6,20v7.55h2.14v-13H15.38ZM32,23.13h1a3.81,3.81,0,0,0,3-1.24,4.54,4.54,0,0,0,1.14-3.17,4.23,4.23,0,0,0-1-3.08,3.81,3.81,0,0,0-2.87-1.05H29.54v13H32Zm0-6.37h.83a1.62,1.62,0,0,1,1.25.52,2.25,2.25,0,0,1,.48,1.57c0,1.42-.57,2.13-1.7,2.13H32Zm-9.24,10.8h2.67l3.31-13H26.26l-1.8,8.5c-.09.47-.15.92-.19,1.34l-.05.35h-.06a12,12,0,0,0-.2-1.65l-1.8-8.54H19.57ZM21.51,43,0,21.49,21.49,0,43,21.51Z" /></g></g></svg>