<?xml version="1.0" encoding="utf-8"?>
<!-- Generator: Adobe Illustrator 24.3.0, SVG Export Plug-In . SVG Version: 6.00 Build 0)  -->
<svg version="1.1" id="Layer_1" xmlns="http://www.w3.org/2000/svg" xmlns:xlink="http://www.w3.org/1999/xlink" x="0px" y="0px"
	 viewBox="0 0 800 800" style="enable-background:new 0 0 800 800;" xml:space="preserve">
<style type="text/css">
	.st0{fill:#E09975;}
	.st1{fill:#F2B089;}
	.st2{fill:#2A3A4F;}
	.st3{fill:#C47B5B;}
	.st4{fill:#1BBC9B;}
	.st5{opacity:0.35;fill:#B7714F;enable-background:new    ;}
	.st6{fill:#33D3AD;}
	.st7{fill:#139B7A;}
	.st8{fill:none;}
	.st9{fill:#1C234F;}
	.st10{fill:#2B367A;}
	.st11{fill:#131836;}
	.st12{fill:#E6E7E8;}
	.st13{fill:#754C29;}
	.st14{fill:#8B5E3C;}
	.st15{fill:#603913;}
	.st16{fill:#939598;}
	.st17{fill:#161E28;}
	.st18{fill:#543622;}
	.st19{fill:#33241A;}
	.st20{fill:#B7714F;}
	.st21{fill:#B5B5B5;}
	.st22{fill:#D1D1D1;}
	.st23{fill:#E5E5E5;}
</style>
<g id="Layer_1_1_">
	<g>
		<path class="st0" d="M309.3,649.3c0,0-0.5,18-5.9,20.1c-5.4,2.2-62.6-1.9-62.6-1.9l10.5-22.7L309.3,649.3z"/>
		<path class="st1" d="M209.6,649.3c0,0-15.4,2.8-17,3.2s-19.5,5.3-21.1,6.1s-10.9,4.9-4.5,8.1c6.5,3.2,34.1,2.2,51.1,2.7
			s35.7,0.5,38.5-1.9c2.8-2.4,3.2-8.2,1.6-11.6s-18.2-14.7-23.1-14.7C230.2,641.2,209.6,649.3,209.6,649.3z"/>
		<path class="st0" d="M374.7,441.3c0-1.6-14.3-17.8-14.3-17.8s-84.9-1.1-90.4,0s-9.3,6.5-9.3,17.8c0,11.4,28.1,164.4,28.1,164.4
			h26.5c0,0,3.2-80.6-1.1-119.5S374.7,441.3,374.7,441.3z"/>
		<path class="st1" d="M391,424c0,0-114.4,2.2-127.3,7c-13,4.9-19.7,46.2-23.5,84.7s-11.9,98-11.9,98s31.9,3.8,32.4,0
			s40.6-117.9,42.7-118.9c2.2-1.1,18.9-2.2,18.9-2.2s81.8,14.1,121.2,14.1s59.2-21.3,63.7-34.1l-43-54.1l-20.7-10.8L391,424z"/>
		<path class="st0" d="M464.2,418.6l-20.7-10.8l-18.3,5.7c5.8,1.5,9.1,2.4,9.1,2.4l-6.6,23.2c0,0,33.6,21.1,42.2,37.3
			c5.9,11-9.8,23.4-20.4,30.1c35.4-2,53.4-21.7,57.7-33.9L464.2,418.6z"/>
		<path class="st2" d="M282.6,324.7L228,289.6c-1.9-1.2-4.4-0.7-5.7,1.2l-3,4.7c-1.2,1.9-0.7,4.4,1.2,5.7l54.6,35.1
			c1.9,1.2,4.4,0.7,5.7-1.2l3-4.7C285.1,328.4,284.5,325.9,282.6,324.7z"/>
		<path class="st3" d="M265.3,288c0.2,1,2.6,9.3,4.7,11.2s15.8,0.2,15.8,0s-1.3-11.2-1.3-11.2H265.3z"/>
		<path class="st0" d="M270,278.7c0,0-22.7,16-22.9,18.5c-0.2,2.4,5.9,0.8,14-2.4s10.1-5.1,10.7-4.7s7.5,2.6,7.5,2.6
			s-0.4,7.9,1.2,9.9s18.5,2.8,18.5,2.8s52.9,78.5,53.1,77.9s23-33.9,22.6-34.3c-0.3-0.4-60.6-50.9-61.8-52.7
			c-1.2-1.8-9.9-16.2-13-17.6S270,278.7,270,278.7z"/>
		<path class="st4" d="M398.9,236.5l11.5-0.1c0,0,6.4-2.3,30.4,12.3c23.9,14.6,40.7,46.7,44.5,58.6s17.3,59.9,21.9,85.8
			c4.6,26,9.2,63.4,0,79.6c0,0-37.8-13-56.8-20.5C431.5,444.5,391,424,391,424s5.9-2.7,7-4.9c1.1-2.2,5.4-7,7-15.7
			s-27-54.6-30.3-78.4c-3.2-23.8-3-45.1-3-45.1L398.9,236.5z"/>
		<path class="st1" d="M366.1,247.7c0,0,7,11.6,7.6,13.5c0.5,1.9-1.9,18.7-1.9,18.7s14.9-8.1,21.9-14.1c7-5.9,16.8-29.5,16.8-29.5
			s-4.9-3.8-6.5-5.1s-8.9-12.2-8.9-12.2l-39.9-16.7L366.1,247.7z"/>
		<path class="st5" d="M370.8,218.6c0,0,2.4,9,2.8,18.9s-2.8,17.4-2.8,17.4l-9.4-16.6c0,0-0.4-12.4,0-15
			C361.8,220.7,370.8,218.6,370.8,218.6z"/>
		<path class="st6" d="M412.5,272.2l-26.2,44.6l4.5,5.3l-12.5,16.6l-3.6-13.7C374.7,325.1,392.8,293.7,412.5,272.2z"/>
		<path class="st7" d="M434.2,349.7l5.7,1.6l28.4-38.3c0,0-21.5,44.8-32,57s-31.8,29.1-31.8,29.1l-5.5-14.5l8.5-20.5L434.2,349.7z"
			/>
		<path class="st1" d="M279.3,339.9c0,0-4.5-7.2-5.9-12.5s-1.2-12.8-3.4-16.2c-2.2-3.4-18.5-15.2-19.9-14.8
			c-1.4,0.4-1.8,5.1,1.8,9.1c3.6,4.1,4.9,6.3,5.1,8.1c0.2,1.8-1.2,8.5-1.2,8.5L219.3,299c0,0-1.4,4.9,1.4,8.7c0,0-0.6,2.6,1.6,8.9
			c2.2,6.3,18.2,19.9,22.9,24.1c4.7,4.3,14.8,6.7,18.7,9.7s6.1,4.1,6.1,4.1l9.3-3.2V339.9z"/>
		<path class="st8" d="M303.4,494.8l-11.9-22.2c0,0,3.2,16.2,0,34.1c-3.2,17.8-7,41.6-7,41.6L303.4,494.8z"/>
		<g>
			<path class="st9" d="M320.6,625.8v-6.5c0,0-1.1-1.2-5.8-1.1c-1.5,0-32.6-0.6-34.4,0.8c-1.8,1.5-1.8,5.2-1.8,5.2
				s-21.3,21.4-26.7,23.4c-5.3,1.9-28.3,3.6-30.7,4.8c-2.4,1.1-6.3,4.1-6.3,4.1l-0.6,0.6l-1.6,5c7.9,9.7,35,9.6,35,9.6s58.7,0,77,0
				c7.7,0,6.9-8.8,6.9-8.8C330.6,635.6,320.6,625.8,320.6,625.8z"/>
			<path class="st10" d="M283.6,628.1c-0.7,1.3-29,23.6-29,23.6l1.6,1.3c0,0,26.3-20,28.1-21.4c1.8-1.5,3.3-5.9,3.3-5.9l-2.6-0.3
				C285,625.2,284.2,626.8,283.6,628.1z"/>
			<path class="st10" d="M278.7,624.2c0,0-21.3,21.4-26.7,23.4c-0.3,0.1-0.6,0.2-1,0.3l0,0c1.2,1.9,1,1.7,3.2,0.5
				c2.2-1.3,26.7-21.6,26.7-24.4c0-2.9,2.1-5.4,2.1-5.4c-1.4,0.1-2.4,0.3-2.7,0.5C278.7,620.5,278.7,624.2,278.7,624.2z"/>
			<path class="st10" d="M314.8,618.2c-0.6,0-5.4-0.1-11.3-0.1c-7,0-13.8,0.1-14.4,0.1c-1.2,0-3.4,6.4-3.4,6.4
				c-0.5,1.2,2.1,0.6,2.1,0.6s1.1-4.2,2.4-5.6c1.3-1.4,30.4-0.3,30.4-0.3S319.5,618.1,314.8,618.2z"/>
			<path class="st11" d="M258.6,652.3c-6.4-0.5-7.5-4.3-7.5-4.5l-0.9,0.2c0,0.2,1.2,4.6,8.4,5.2c7.3,0.6,23.7,5.4,29.3,12.5l0.7-0.6
				C282.3,657.3,264.8,652.9,258.6,652.3z"/>
			<path class="st12" d="M214.3,657L214.3,657l-1.6,5.1c7.9,9.7,35,9.6,35,9.6s58.7,0,77,0c4.9,0,6.4-3.6,6.8-6.2h-88.2
				C243.3,665.5,225.5,666.1,214.3,657z"/>
			<g>
				<path class="st13" d="M302.8,659c-2.3,2.1-3.4,6.5-3.4,6.5h32.1c1.1-3.2,0-7.5,0-7.5S305.1,656.9,302.8,659z"/>
				<path class="st14" d="M302.8,659c-2.3,2.1-3.4,6.5-3.4,6.5h0.9c0.3-1.6,1.4-4.3,3.3-6.1c2-1.9,23.6-1.2,28-1c0-0.2,0-0.4,0-0.4
					S305.1,656.9,302.8,659z"/>
				<path class="st15" d="M325.2,660.2h-14.9c-0.8,0-1.4,0.6-1.4,1.4c0,0.8,0.6,1.4,1.4,1.4h14.9c0.8,0,1.4-0.6,1.4-1.4
					S326,660.2,325.2,660.2z"/>
			</g>
			<path class="st11" d="M285.3,625.8c2.6,0.1,35.3,0,35.3,0v-1.2h-35.3V625.8z"/>
			<path class="st11" d="M283.3,626.7c-2.1,4.9-29,24.6-29,24.6l0.9,0.4c2.8-2,27.6-19.1,29.2-23.7c1.6-4.6,4.8-9.7,4.8-9.7
				c-0.7,0-1.4,0-2,0.1C286.4,619.8,284.8,623.1,283.3,626.7z"/>
			<path class="st10" d="M256.6,657.7c-5.8-2.2-7.1-8.4-7.1-8.4c-1.2-1.3-2.4,0.5-2.3,1.3c0.1,0.8,0.7,3-1.9,1.7
				c-2.6-1.3-3.4-0.2-3.1,0.5c0.2,0.7-2,1.7-3.8-0.1c-1.9-1.9-4.1-0.2-3.4,1.9c0.7,2.2-1.9,0.5-3.5-1.5s-4.4-0.6-5,0.3
				c-0.6,0.9,1.7,1,1.2,2.3c-0.6,1.3-3.6-0.9-3.1,0.1s4.8,3.5,6.4,3.1c1.6-0.3-1.9-3.5,0.8-3s4.3,3.5,5.9,3.3c1.6-0.2-1-2.9,1-3.7
				c2.1-0.8,6.2,4.2,8.1,3.7c2-0.5-5-5-0.8-4.8s9.5,6.5,11.4,5.2C259.3,658.5,256.6,657.7,256.6,657.7z"/>
			<path class="st11" d="M258.1,655.3c-3-2.7-5.1-2.9-3.8-1.6c0,0,6,6.4,9.8,5.7C267.9,658.6,261.1,657.9,258.1,655.3z"/>
			<path class="st11" d="M247.2,656.2c-0.3,2,2.3,5.2,4.3,5.4s2.3-1.3,1.4-2.2C252.9,659.4,247.6,654.1,247.2,656.2z"/>
			<g>
				<path class="st11" d="M255.2,645c-1.3,1-2.1,2.2-1.7,2.7c0.4,0.5,1.7,0.1,3.1-0.8c1.3-1,2.1-2.2,1.7-2.7
					C257.9,643.7,256.6,644,255.2,645z"/>
				<path class="st16" d="M255.2,644.9c-1,0.7-1.5,1.6-1.3,1.9c0.3,0.4,1.3,0.1,2.2-0.6c1-0.7,1.5-1.6,1.3-1.9
					C257.1,643.9,256.1,644.2,255.2,644.9z"/>
			</g>
			<g>
				<path class="st11" d="M262.1,638.8c-1.3,1-2.1,2.2-1.7,2.7s1.7,0.1,3.1-0.8c1.3-1,2.1-2.2,1.7-2.7
					C264.8,637.4,263.4,637.8,262.1,638.8z"/>
				<path class="st16" d="M262,638.7c-1,0.7-1.5,1.6-1.3,1.9c0.3,0.4,1.3,0.1,2.2-0.6c1-0.7,1.5-1.6,1.3-1.9
					C264,637.7,263,638,262,638.7z"/>
			</g>
			<g>
				<path class="st11" d="M269.3,632.3c-1.3,1-2.1,2.2-1.7,2.7s1.7,0.1,3.1-0.8c1.3-1,2.1-2.2,1.7-2.7S270.6,631.4,269.3,632.3z"/>
				<path class="st16" d="M269.2,632.2c-1,0.7-1.5,1.6-1.3,1.9c0.3,0.4,1.3,0.1,2.2-0.6c1-0.7,1.5-1.6,1.3-1.9
					S270.2,631.5,269.2,632.2z"/>
			</g>
			<g>
				<path class="st11" d="M275.5,626.4c-1.3,1-2.1,2.2-1.7,2.7s1.7,0.1,3.1-0.8c1.3-1,2.1-2.2,1.7-2.7
					C278.2,625.1,276.9,625.5,275.5,626.4z"/>
				<path class="st16" d="M275.5,626.3c-1,0.7-1.5,1.6-1.3,1.9c0.3,0.4,1.3,0.1,2.2-0.6c1-0.7,1.5-1.6,1.3-1.9
					C277.4,625.4,276.4,625.6,275.5,626.3z"/>
			</g>
		</g>
		<g>
			<path class="st9" d="M260.2,627.8v-6.5c0,0-1.1-1.2-5.8-1.1c-1.5,0-32.6-0.6-34.4,0.8c-1.8,1.5-1.8,5.2-1.8,5.2
				s-21.3,21.4-26.7,23.4c-5.3,1.9-28.3,3.6-30.7,4.8c-2.4,1.1-6.3,4.1-6.3,4.1l-0.6,0.6l-1.6,5c7.9,9.7,35,9.6,35,9.6s58.7,0,77,0
				c7.7,0,6.9-8.8,6.9-8.8C270.2,637.6,260.2,627.8,260.2,627.8z"/>
			<path class="st10" d="M223.2,630.1c-0.7,1.3-29,23.6-29,23.6l1.6,1.3c0,0,26.3-20,28.1-21.4c1.8-1.5,3.3-5.9,3.3-5.9l-2.6-0.3
				C224.6,627.2,223.8,628.8,223.2,630.1z"/>
			<path class="st10" d="M218.3,626.2c0,0-21.3,21.4-26.7,23.4c-0.3,0.1-0.6,0.2-1,0.3l0,0c1.2,1.9,1,1.7,3.2,0.5
				c2.2-1.3,26.7-21.6,26.7-24.4c0-2.9,2.1-5.4,2.1-5.4c-1.4,0.1-2.4,0.3-2.7,0.5C218.3,622.5,218.3,626.2,218.3,626.2z"/>
			<path class="st10" d="M254.4,620.2c-0.6,0-5.4-0.1-11.3-0.1c-7,0-13.8,0.1-14.4,0.1c-1.2,0-3.4,6.4-3.4,6.4
				c-0.5,1.2,2.1,0.6,2.1,0.6s1.1-4.2,2.4-5.6c1.3-1.4,30.4-0.3,30.4-0.3S259.1,620.1,254.4,620.2z"/>
			<path class="st11" d="M198.2,654.3c-6.4-0.5-7.5-4.3-7.5-4.5l-0.9,0.2c0,0.2,1.2,4.6,8.4,5.2c7.3,0.6,23.7,5.4,29.3,12.5l0.7-0.6
				C221.9,659.3,204.4,654.9,198.2,654.3z"/>
			<path class="st12" d="M153.9,659L153.9,659l-1.6,5.1c7.9,9.7,35,9.6,35,9.6s58.7,0,77,0c4.9,0,6.4-3.6,6.8-6.2h-88.2
				C182.9,667.5,165.1,668.1,153.9,659z"/>
			<g>
				<path class="st13" d="M242.4,661c-2.3,2.1-3.4,6.5-3.4,6.5h32.1c1.1-3.2,0-7.5,0-7.5S244.7,658.9,242.4,661z"/>
				<path class="st14" d="M242.4,661c-2.3,2.1-3.4,6.5-3.4,6.5h0.9c0.3-1.6,1.4-4.3,3.3-6.1c2-1.9,23.6-1.2,28-1c0-0.2,0-0.4,0-0.4
					S244.7,658.9,242.4,661z"/>
				<path class="st15" d="M264.8,662.2h-14.9c-0.8,0-1.4,0.6-1.4,1.4c0,0.8,0.6,1.4,1.4,1.4h14.9c0.8,0,1.4-0.6,1.4-1.4
					C266.2,662.8,265.6,662.2,264.8,662.2z"/>
			</g>
			<path class="st11" d="M224.9,627.8c2.6,0.1,35.3,0,35.3,0v-1.2h-35.3L224.9,627.8L224.9,627.8z"/>
			<path class="st11" d="M222.9,628.7c-2.1,4.9-29,24.6-29,24.6l0.9,0.4c2.8-2,27.6-19.1,29.2-23.7c1.6-4.6,4.8-9.7,4.8-9.7
				c-0.7,0-1.4,0-2,0.1C226,621.8,224.4,625.1,222.9,628.7z"/>
			<path class="st10" d="M196.2,659.7c-5.8-2.2-7.1-8.4-7.1-8.4c-1.2-1.3-2.4,0.5-2.3,1.3c0.1,0.8,0.7,3-1.9,1.7
				c-2.6-1.3-3.4-0.2-3.1,0.5c0.2,0.7-2,1.7-3.8-0.1c-1.9-1.9-4.1-0.2-3.4,1.9c0.7,2.2-1.9,0.5-3.5-1.5s-4.4-0.6-5,0.3
				c-0.6,0.9,1.7,1,1.2,2.3c-0.6,1.3-3.6-0.9-3.1,0.1s4.8,3.5,6.4,3.1c1.6-0.3-1.9-3.5,0.8-3s4.3,3.5,5.9,3.3c1.6-0.2-1-2.9,1-3.7
				c2.1-0.8,6.2,4.2,8.1,3.7c2-0.5-5-5-0.8-4.8s9.5,6.5,11.4,5.2C198.9,660.5,196.2,659.7,196.2,659.7z"/>
			<path class="st11" d="M197.7,657.3c-3-2.7-5.1-2.9-3.8-1.6c0,0,6,6.4,9.8,5.7C207.5,660.6,200.7,659.9,197.7,657.3z"/>
			<path class="st11" d="M186.8,658.2c-0.3,2,2.3,5.2,4.3,5.4s2.3-1.3,1.4-2.2C192.5,661.4,187.2,656.1,186.8,658.2z"/>
			<g>
				<path class="st11" d="M194.8,647c-1.3,1-2.1,2.2-1.7,2.7c0.4,0.5,1.7,0.1,3.1-0.8c1.3-1,2.1-2.2,1.7-2.7S196.2,646,194.8,647z"
					/>
				<path class="st16" d="M194.8,646.9c-1,0.7-1.5,1.6-1.3,1.9c0.3,0.4,1.3,0.1,2.2-0.6c1-0.7,1.5-1.6,1.3-1.9
					C196.7,645.9,195.7,646.2,194.8,646.9z"/>
			</g>
			<g>
				<path class="st11" d="M201.7,640.8c-1.3,1-2.1,2.2-1.7,2.7c0.4,0.5,1.7,0.1,3.1-0.8c1.3-1,2.1-2.2,1.7-2.7
					C204.4,639.4,203,639.8,201.7,640.8z"/>
				<path class="st16" d="M201.6,640.7c-1,0.7-1.5,1.6-1.3,1.9c0.3,0.4,1.3,0.1,2.2-0.6c1-0.7,1.5-1.6,1.3-1.9
					C203.6,639.7,202.6,640,201.6,640.7z"/>
			</g>
			<g>
				<path class="st11" d="M208.9,634.3c-1.3,1-2.1,2.2-1.7,2.7c0.4,0.5,1.7,0.1,3.1-0.8c1.3-1,2.1-2.2,1.7-2.7
					C211.6,633,210.2,633.4,208.9,634.3z"/>
				<path class="st16" d="M208.8,634.2c-1,0.7-1.5,1.6-1.3,1.9c0.3,0.4,1.3,0.1,2.2-0.6c1-0.7,1.5-1.6,1.3-1.9
					S209.8,633.5,208.8,634.2z"/>
			</g>
			<g>
				<path class="st11" d="M215.1,628.4c-1.3,1-2.1,2.2-1.7,2.7c0.4,0.5,1.7,0.1,3.1-0.8c1.3-1,2.1-2.2,1.7-2.7
					C217.8,627.1,216.5,627.5,215.1,628.4z"/>
				<path class="st16" d="M215.1,628.3c-1,0.7-1.5,1.6-1.3,1.9c0.3,0.4,1.3,0.1,2.2-0.6c1-0.7,1.5-1.6,1.3-1.9
					C217,627.4,216,627.6,215.1,628.3z"/>
			</g>
		</g>
		<path class="st2" d="M223.3,588.7c0,0,43.8,8.9,51.9,7.3s16.1-7.7,28.1-7.3c12.1,0.4,20.5,4.9,21,12.2c0.4,7.3,0.8,13.2,2.8,18
			c2,4.7,1.6,6.4,2.4,10.8s-0.7,18.7-11.9,21.1c-11.2,2.4-3.9,0.4-17.7,1.6c-13.8,1.2-87.6-9.1-98.5-8.4s-6.1-6.2,0-8.7
			c6.1-2.4,0.8-22.7,3.2-28.8s4.9-8.1,7.3-10.5C214.4,593.5,216.9,587.4,223.3,588.7z"/>
		<path class="st17" d="M329.6,629.6c-0.8-4.5-0.4-6.1-2.4-10.8s-2.4-10.7-2.8-18s-8.9-11.8-21-12.2c-4.8-0.2-8.9,0.7-12.6,1.9
			l-2,3.1c0,0,11.1-3.4,14.6,4.7c3.5,8.1,3.5,12,7.6,20.4s-5.3,17.2-4.9,25.1c0.2,3.2-2,6-4.6,8.3c11.7-0.9,5.4,0.8,16.2-1.5
			C328.9,648.3,330.4,634.1,329.6,629.6z"/>
		<g>
			<path class="st18" d="M318.5,192.8c0,0-2.7,1.4-3.8,0.6s-5.6-3.9-7.3-8.3c-1.7-4.4,3.7-13.7,6.2-15.4c2.6-1.7,7.2-3.7,10.1-6.3
				c2.8-2.6,6.9-8.8,18-11s21.7,1.7,25,2.4c3.4,0.8,8.9,1.5,15.4,8.7s9.4,23.4,10.7,27.3s3.1,27.4,2.3,28.1s-13-0.4-20.3,0.1
				s-4.2-4.1-4.2-4.1s-21.5-4.1-23.1-6.1C345.9,207,318.5,192.8,318.5,192.8z"/>
			<path class="st1" d="M313.6,184.3c0,0-0.3,18,0.7,21.7s6.7,9.6,7.3,12.1s-2.9,19-1.8,20.2c1,1.1,6.9-0.3,8.8,0.7s2.3,4.8,3.2,5.7
				c0.9,0.9,3.8,0.4,3.8,0.4s0.2,2.4,1.6,4.1c1.4,1.7,2.3,2,3.2,2.8c0.9,0.9,2.4,2.5,3.2,5s4.8,5,9,3.1s13.1-10.4,16.4-18.8
				s1.6-26.3,1.6-26.3s6.9-1.2,6.7-8.1c-0.2-6.9-6.3-12.2-11.6-10.2s-4.2,8.1-4.4,9.2c-0.1,1-3.7,0.6-6.2-3.5s-2.2-9.9-4.4-11.9
				c-2.2-2-3.4-0.2-7.8-3c-4.3-2.8-5.3-7.8-8.7-8.5C330.8,178.4,326.3,182.6,313.6,184.3z"/>
			<path class="st18" d="M318.6,206.9c0,0,0.4,1.2,1,1.2c0.5,0,5.3-2.1,7.8-2.6s4.9-1.2,4.9-1.2s-3.1-2.3-6.5-2
				C322.3,202.6,318.8,205.8,318.6,206.9z"/>
			
				<ellipse transform="matrix(0.9011 -0.4337 0.4337 0.9011 -60.8731 163.9633)" class="st19" cx="328.9" cy="215.4" rx="2.7" ry="3.6"/>
			<path class="st20" d="M335.5,245.2c0,0,2.8-1.8,5.8-4.2s5-5.2,5.5-5.3s-1.5,3.6-4.1,6.5s-6.6,5.1-6.6,5.1L335.5,245.2z"/>
		</g>
		<path class="st1" d="M390.8,322.1l-43.4,57.6l-68.1-39.8l-9.3,14.7c0,0,53.1,51.9,64.1,61.2s18.7,10.5,26.4,7.7
			c7.7-2.8,73.8-73.8,73.8-73.8L390.8,322.1z"/>
		<polygon class="st5" points="390.8,322.1 426.9,357.5 434.2,349.7 		"/>
	</g>
</g>
<g id="Layer_3">
</g>
<g id="Layer_2_1_">
	<rect x="439.8" y="595.5" class="st21" width="138.4" height="59.9"/>
	<path class="st22" d="M373.8,510.6l-20.5,4.1c0,0,4.9,64.6,86.5,80.8h139c0,0,26-3.8,32.4-35.7l-2.7-212.5h-55.7l-47,154.6
		L373.8,510.6z"/>
	<path class="st23" d="M525.7,514.7c-1.9-5.4-6.4-15.4-14.6-18.1h-155c0,0-14.6,5.9-13.7,18.1H525.7z"/>
	<path class="st22" d="M402.5,655.4c-6.9,0-12.5,5.6-12.5,12.5v1.1h188.2v-13.5L402.5,655.4L402.5,655.4z"/>
</g>
</svg>
