<svg xmlns="http://www.w3.org/2000/svg" viewBox="0 0 550.69 712.7"><defs><style>.cls-1{fill:#2a3a4f;}.cls-2{fill:#fff;}.cls-3{fill:#936954;}.cls-4{fill:#ebf1f2;}.cls-5{fill:#bc88b2;}.cls-6{fill:#e0e0e0;}.cls-7{fill:#231f20;}.cls-8{fill:#563a28;}.cls-9{fill:#c18bbf;}.cls-10{fill:#a878a1;}.cls-11{fill:#fd724a;}.cls-12{fill:#4e5e84;}.cls-13{fill:#845744;}.cls-14{fill:#777;opacity:0.11;}.cls-15{fill:#301f16;}.cls-16{fill:#878787;}.cls-17{fill:#80bcea;}.cls-18{fill:#d1d1d1;}.cls-19{fill:#8eac00;}.cls-20{fill:#ffac8a;}.cls-21{fill:#feeadd;}.cls-22{fill:#d1c1b8;}.cls-23{fill:#87ab00;}.cls-24{fill:#bfce00;}.cls-25{fill:#97bc00;}.cls-26{fill:#c3e200;}.cls-27{fill:#cecece;}.cls-28{fill:#3e3f3d;}.cls-29{fill:#685021;}</style></defs><title>Asset 6</title><g id="Layer_2" data-name="Layer 2"><g id="Layer_1-2" data-name="Layer 1"><rect class="cls-1" x="82.26" width="360.28" height="678.21" rx="47.46"/><path class="cls-2" d="M424.69,52V621.72a35.11,35.11,0,0,1-34.88,35.14H135a35.11,35.11,0,0,1-34.88-35.14V52A35.11,35.11,0,0,1,135,16.81H389.81A35.11,35.11,0,0,1,424.69,52Z"/><rect class="cls-1" x="193.39" y="3.97" width="138.04" height="34.02" rx="15.55"/><path class="cls-3" d="M23.43,662.45c.73.89-1.7,34.71-1.93,34.72s15.6-1.45,15.58-2.14,2.17-31.65,2.17-31.65Z"/><path class="cls-4" d="M21,677.61c-.5,9.3-1.24,19.72-1.37,19.73s18.63-1.59,18.61-2.28c0-.37.56-9.07,1.09-17.09Q30.17,677.84,21,677.61Z"/><path class="cls-5" d="M1.34,707.35C1.15,702,13.8,692.24,18.1,684.08c4-7.62,15.63-2.47,16.85,2.43s3.2-4.64,4.68-3.77,6.72,22.62,4.94,23.86S1.54,712.94,1.34,707.35Z"/><path class="cls-6" d="M2.83,703.29s-2.75,2.86,5.71,3.4c14.11.9,36.31-4.31,36.31-4.31s1.74.67,1.79,1.93.81,6.31-.42,6.79S3.69,714.53,1,710.94C-2.07,706.77,2.83,703.29,2.83,703.29Z"/><path class="cls-6" d="M8.54,696.22s12.32.23,15.8,2.91,11.26-4.83,6.77-8.79-13-4-15.8-2S8.54,696.22,8.54,696.22Z"/><path class="cls-3" d="M101.19,658.57c1.57,1.58,3.63,38.59,3.86,38.6S89.44,695.72,89.47,695,85,662.69,85,662.69Z"/><path class="cls-4" d="M105.54,677.61c.5,9.3,1.24,19.72,1.37,19.73s-18.63-1.59-18.61-2.28c0-.37-1.37-9.17-1.91-17.19C92.5,677.77,99.43,677.77,105.54,677.61Z"/><path class="cls-5" d="M125.2,707.35c.19-5.32-12.45-15.11-16.75-23.27-4-7.62-15.64-2.47-16.86,2.43s-3.19-4.64-4.68-3.77S80.19,705.36,82,706.6,125,712.94,125.2,707.35Z"/><path class="cls-6" d="M123.71,703.29s2.76,2.86-5.71,3.4c-14.11.9-36.31-4.31-36.31-4.31s-1.74.67-1.78,1.93-.82,6.31.42,6.79,42.52,3.43,45.19-.16C128.62,706.77,123.71,703.29,123.71,703.29Z"/><path class="cls-6" d="M118,696.22s-12.32.23-15.81,2.91S91,694.3,95.44,690.34s13-4,15.79-2S118,696.22,118,696.22Z"/><path class="cls-7" d="M69.14,242c-12.52-4-28.58-3-39,23.86-11.07,28.59-6.89,76.46-6.89,76.46l67.48-2.17s1.59-48.45-1.44-67.52S80.16,245.57,69.14,242Z"/><path class="cls-8" d="M80.12,283.48c-8.5-.26-16.35-3.94-24.37-6.48a68.1,68.1,0,0,0-8.8-1.95c-.72-.12-1.44-.24-2.17-.33-.33,0-.66-.07-1-.09h-.4l-.27,0a9.39,9.39,0,0,1-1.59,5.16c-.93,1.46-2,2.76-2.81,4.28a33.53,33.53,0,0,0-3.38,11.05,146.73,146.73,0,0,0-1.43,24.52c0,7.46.26,14.91.59,22.35l43.7-1.4a97.37,97.37,0,0,1,.69-9.81c.56-5.16,1.11-10.29,1.22-15.48C80.35,304.7,79.79,294.09,80.12,283.48Z"/><path class="cls-3" d="M72.31,317.84C69.94,313.63,71,305.61,71,305.61l-22.18-17s.67,24.23-1.7,27c-.85,1-5.56,1.94-11.44,3l-.66,16H77.21l.59-14.39C74.93,319.54,72.86,318.81,72.31,317.84Z"/><path class="cls-9" d="M76.12,319.7c-1.71,5.61-11.53,11.07-19,10.86-10.54-.31-17.56-4.74-19.87-12.26-10.68,1.9-26.34,4-28.75,7C5,329.8,5.13,358.4,5.13,358.4l105.41.09s2.62-27.3-1.29-32C106,322.6,84.86,322.1,76.12,319.7Z"/><path class="cls-9" d="M22.42,426.84l61.6.53,7.33-74.16-68.79,2.84C23.73,362.3,22.42,426.84,22.42,426.84Z"/><path class="cls-10" d="M76.56,371.8c.48-.7,5.44-11.39,5.34-12.27-.05-.42-4.82-3-9.69-5.53l-26.94,1.11-4.12,1.57a11.55,11.55,0,0,0-4.66,6.68C35.7,367,26.14,376.5,23,379.5c-.06,15.78-.39,35-.54,43.25,3.83-3.4,11.55-10.71,15.16-17.57,4.91-9.34,10.87-24,10.87-24s4.85-1.74,5.95-2.87,5.48-1,5.48-1S67.42,411.07,84.55,422l4-41C85.15,378.68,76.17,372.37,76.56,371.8Z"/><path class="cls-3" d="M37,368.7c-1.89,5.92-12.67,14.22-12.67,14.22l-1.16-25.64-16.53.41c.24,1.05-3.11,61.52,7.62,61.79s28.84-41.76,31.45-43.39C48,374.67,37.77,366.19,37,368.7Z"/><path class="cls-3" d="M86.56,385S75,375.36,74.48,371c-.35-2.69-10.84,4.54-10.84,4.54s19.2,46.33,30,46.07,14.19-61.71,14.54-63.65H90.53Z"/><path class="cls-2" d="M69.7,336.56l-19-.88c-.8,0-1.51,1-1.64,2.38l-1.15,28.58A1.3,1.3,0,0,0,49.17,368l15.91.74a1.46,1.46,0,0,0,1.53-1.19l4.26-28.41C71,337.71,70.51,336.6,69.7,336.56Z"/><path class="cls-1" d="M69.58,337.81l-19-.89A1.45,1.45,0,0,0,49,338.24l-1.26,29.65a1.29,1.29,0,0,0,1.29,1.31l15.92.74a1.44,1.44,0,0,0,1.52-1.18l4.37-29.51A1.28,1.28,0,0,0,69.58,337.81Z"/><polygon class="cls-11" points="53.9 365.75 62.17 364.16 62.17 364.16 53.9 365.75"/><path class="cls-3" d="M57.36,354.06c-1,.13-8.27,1.38-8.53,1.19a20,20,0,0,1,2.89-1.09c1.77-.53,7.73-1.78,9.44-3.56s-1-2.66-4.06-2.34a81.92,81.92,0,0,0-11,2.23,12.25,12.25,0,0,0-5.57,4c-.45.65-2.72,14.49-4.87,16.9-1.76,2,6.41,5.51,8.2,5.09a9,9,0,0,0,7.28-5.18l11.14-3.63-.12-3.48-8.27,1.59,8.27-1.59,1.71-.32s-7-3-7.43-3.17c-.11,0-.78-.44-.78-.44s10.13-3,10.48-3.21S58.32,353.94,57.36,354.06Z"/><path class="cls-3" d="M80.08,356.37c-.73-1.14-3.73-6.08-4.73-6.59s-9.79-1.77-12.74-3-1.87,3.11-.67,3.88c0,0-3.69-.4-5.7.36s-.34,3.2.56,3.5,10,2.9,10.33,3.15a24.13,24.13,0,0,1,1.65,1.92s-10.81-3-13-3.82-3.69,2.91-.82,4.75,11.88,4.43,11.88,4.43-9.54-.65-9.73-.25,6.42,4.56,6.48,4.62-1.47,3.37.06,6.32c1.21,2.35,6.69,1.66,6.69,1.66s5.51-8,5.9-9.18,2.06-2,2-3.23,1.82-1.14,1.63-3.1a6.77,6.77,0,0,0-1.16-3.23S80.81,357.5,80.08,356.37Z"/><path class="cls-12" d="M87.17,428.92h0l-2.09-5.31s-17.87,3.73-31.31,3.45-32.34-2.38-32.34-2.38L21,428.92h0c-2.2,3.52-12.37,19.5-17,39.87-2.31,10.12,5.41,172.4,7.38,200.92h39L57,499.38,76,669.71h38.62c-6.57-153-6.24-185.7-7.06-195.06C105.84,454.93,90.41,433.22,87.17,428.92Z"/><path class="cls-2" d="M53.53,339.25H52.1a.94.94,0,0,0-.93.82l-.38,4.61a.77.77,0,0,0,.79.83H53a.93.93,0,0,0,.92-.82l.38-4.61A.77.77,0,0,0,53.53,339.25Z"/><path class="cls-13" d="M48.58,307.59l-.22,2.71s6.16,4.67,11.39,4.6,11-4.38,11-4.38l.08-3.53Z"/><path class="cls-3" d="M85.78,284.91c-3.17-4.11-7.27,2.12-7.27,2.12s-2.5,5.93.12,8.34S89.43,289.62,85.78,284.91Z"/><path class="cls-3" d="M60,250.88c-12,0-22.07,13.74-22.41,30.7s9.76,29.78,21.81,29.78,21.47-12.83,21.8-29.78S72.07,250.88,60,250.88Z"/><path class="cls-7" d="M56.4,244.59c-22.13,1.8-35.25,61.16-33.88,76.28S40.4,339.24,40.4,339.24c-2.16-8.59-2.8-54.36-2.8-54.36C61,273.37,63,260.6,63,260.6c2.14,10.43,18.49,17,18.49,17S78.54,242.79,56.4,244.59Zm23.94,29.14c-6.39-2.25-11.61-5.85-14.46-12.86C69.11,265.18,75.21,271.57,80.34,273.73Z"/><path class="cls-14" d="M67,241.42A7.1,7.1,0,0,1,65,243.77c-4.26,3.09-10.65,3.5-15.69,2.91A19.8,19.8,0,0,1,44,245.34a33.75,33.75,0,0,0-6.91,7.32l.38.15,1.12.38.15,0,.22.06,1.74.45c1.09.25,2.19.45,3.3.62,1.27.19,2.56.32,3.85.42s2.08.12,3.06.13a73.14,73.14,0,0,0,7.4-.32,58.65,58.65,0,0,0,6.74-.9l.29-.06.46-.12.94-.29q1-.32,1.89-.69a23.18,23.18,0,0,0,3-1.46,19.53,19.53,0,0,0,3.14-2.36l.46-.47c.22-.24.44-.48.65-.74s.4-.5.58-.77c0,0,.35-.56.35-.53l.16-.29A26.12,26.12,0,0,0,69.14,242C68.45,241.81,67.74,241.61,67,241.42Z"/><path class="cls-13" d="M55.28,295.2a9.12,9.12,0,0,0,4,1.2c2.19.07,3.74-1.55,4.73-1.2s-1.27,3-4.52,3.12S54.08,295.77,55.28,295.2Z"/><path class="cls-2" d="M53.79,301.63H65.42a7,7,0,0,1-6.07,3.95C54.58,305.58,53.79,301.63,53.79,301.63Z"/><ellipse class="cls-15" cx="49.15" cy="287.79" rx="2.01" ry="2.4"/><ellipse class="cls-15" cx="69.55" cy="287.79" rx="2.01" ry="2.4"/><path class="cls-8" d="M65.26,279.74a1.74,1.74,0,0,0,0,1.84c.6.92,4.32.49,7.22.77l2.91.29a6.62,6.62,0,0,0-2.47-2.38C71.46,279.6,66.11,279.46,65.26,279.74Z"/><path class="cls-8" d="M53.11,279.33a1.74,1.74,0,0,1,.15,1.83c-.52,1-4.26.86-7.14,1.38l-2.87.53a6.7,6.7,0,0,1,2.26-2.58C46.91,279.71,52.23,279.12,53.11,279.33Z"/><rect class="cls-16" x="193.39" y="56.51" width="138.04" height="18.93" rx="3.22"/><rect class="cls-17" x="138.52" y="98.24" width="92.98" height="15.97" rx="3.22"/><rect class="cls-18" x="138.52" y="119.53" width="196.49" height="15.97" rx="3.22"/><rect class="cls-18" x="138.52" y="140.83" width="128.57" height="15.97" rx="3.22"/><rect class="cls-17" x="138.52" y="175.96" width="92.98" height="15.97" rx="3.22"/><rect class="cls-18" x="138.52" y="197.25" width="196.49" height="15.97" rx="3.22"/><rect class="cls-18" x="138.52" y="218.55" width="128.57" height="15.97" rx="3.22"/><rect class="cls-17" x="138.52" y="253.68" width="92.98" height="15.97" rx="3.22"/><rect class="cls-18" x="138.52" y="274.97" width="196.49" height="15.97" rx="3.22"/><rect class="cls-18" x="138.52" y="296.27" width="128.57" height="15.97" rx="3.22"/><rect class="cls-17" x="138.52" y="331.4" width="92.98" height="15.97" rx="3.22"/><rect class="cls-18" x="138.52" y="352.69" width="196.49" height="15.97" rx="3.22"/><rect class="cls-18" x="138.52" y="373.99" width="128.57" height="15.97" rx="3.22"/><rect class="cls-17" x="138.52" y="409.12" width="92.98" height="15.97" rx="3.22"/><rect class="cls-18" x="138.52" y="430.41" width="196.49" height="15.97" rx="3.22"/><rect class="cls-18" x="138.52" y="451.71" width="128.57" height="15.97" rx="3.22"/><rect class="cls-17" x="138.52" y="486.84" width="92.98" height="15.97" rx="3.22"/><rect class="cls-18" x="138.52" y="508.13" width="196.49" height="15.97" rx="3.22"/><rect class="cls-18" x="138.52" y="529.43" width="128.57" height="15.97" rx="3.22"/><rect class="cls-17" x="138.52" y="564.56" width="92.98" height="15.97" rx="3.22"/><rect class="cls-18" x="138.52" y="585.85" width="196.49" height="15.97" rx="3.22"/><rect class="cls-18" x="138.52" y="607.14" width="128.57" height="15.97" rx="3.22"/><circle class="cls-2" cx="345.06" cy="601.77" r="4.89"/></g><g id="Layer_5" data-name="Layer 5"><path class="cls-19" d="M411.59,574.56s-21.92-6.07-65.1,16.89c0,0,21.63-1.16,38.34,11.68,0,0,46.28,31,57.52,11.94l17.75-17.48-29.58-17.13Z"/><path class="cls-19" d="M475.28,593.35s36.68-23.69,68.54,11.72c0,0,5.76,6.86,6.87,11.6,0,0-13.75-14.1-26.92-8,0,0-28.64,17-45.48,4.94S475.28,593.35,475.28,593.35Z"/><path class="cls-20" d="M411.59,617.14s42.59-19.1,75.72,0l-6.51,8H431.7Z"/><polygon class="cls-21" points="414.55 685.79 417.1 697.05 479.02 697.05 493.81 633.12 499.14 633.12 499.14 617.14 449.45 617.14 440.28 621.17 429.63 636.25 419.13 666.12 414.55 679.58 414.55 685.79"/><path class="cls-22" d="M449.45,631v-13.9H399.17v18.52h5.92l9.46,50.13s6.51-48.71,72.76-52.67l3.55-2.08Z"/><path class="cls-23" d="M445,543.53s2.52-32.34,35.35-65.85c0,0,12.42,78.05-5.11,94.8S445,562.61,445,562.61Z"/><path class="cls-24" d="M417.36,553.32s-19.27-33.3-14.07-88.75c0,0,68.34,59.44,52.07,113.12l-8.28,4.85-16.95-5.73Z"/><path class="cls-25" d="M450.34,583.29s-35.79-65.57-90.8-49.19c0,0,18.78,8.55,32.76,30,0,0,40.59,64.1,63.06,37.67Z"/><path class="cls-25" d="M513.92,502.75s-8.88,47.75-7.69,57.79-39,27.91-39,27.91l-9.46-16S465.42,545.51,513.92,502.75Z"/><path class="cls-26" d="M438.61,609.74s-9.86-68.36,89.51-54.34c0,0-24.55,16.53-29,34.89a2,2,0,0,0-.07.49C499.14,594.55,490,622.75,438.61,609.74Z"/></g><g id="Layer_4" data-name="Layer 4"><polygon class="cls-27" points="348.12 644.27 352.63 697.59 380.3 697.59 384.73 643.79 348.12 644.27"/><polygon class="cls-28" points="385.7 643.66 385.7 641.72 367.39 641.72 365.04 623.05 362.71 623.36 364.88 641.72 347.15 641.72 347.15 643.66 346.49 643.66 346.49 645.15 386.36 645.15 386.36 643.66 385.7 643.66"/><polygon class="cls-29" points="348.51 655.05 384.34 655.05 382.24 677.15 350.29 677.15 348.51 655.05"/></g></g></svg>